<svg width="172" height="49" viewBox="0 0 172 49" fill="none" xmlns="http://www.w3.org/2000/svg">
<path d="M1 10C1 4.47715 5.47715 0 11 0H162C167.523 0 172 4.47715 172 10V39C172 44.5228 167.523 49 162 49H11C5.47716 49 1 44.5228 1 39V10Z" fill="#B30000"/>
<path d="M79.128 31V12.128H81.564V28.956H89.628V31H79.128ZM97.6082 17.14C101.5 17.14 104.132 19.968 104.132 24.112C104.132 29.124 100.66 31.308 97.3842 31.308C93.7162 31.308 90.8882 28.62 90.8882 24.336C90.8882 19.8 93.8562 17.14 97.6082 17.14ZM97.5522 18.988C94.6402 18.988 93.3802 21.676 93.3802 24.252C93.3802 27.22 95.0882 29.46 97.4962 29.46C99.8482 29.46 101.612 27.248 101.612 24.196C101.612 21.9 100.464 18.988 97.5522 18.988ZM116.755 17.448H118.911C118.855 18.428 118.799 19.52 118.799 21.172V29.04C118.799 32.148 118.183 34.052 116.867 35.228C115.551 36.46 113.647 36.852 111.939 36.852C110.315 36.852 108.523 36.46 107.431 35.732L108.047 33.856C108.943 34.416 110.343 34.92 112.023 34.92C114.543 34.92 116.391 33.604 116.391 30.188V28.676H116.335C115.579 29.936 114.123 30.944 112.023 30.944C108.663 30.944 106.255 28.088 106.255 24.336C106.255 19.744 109.251 17.14 112.359 17.14C114.711 17.14 115.999 18.372 116.587 19.492H116.643L116.755 17.448ZM116.363 25.232V22.796C116.363 22.376 116.335 22.012 116.223 21.676C115.775 20.248 114.571 19.072 112.779 19.072C110.427 19.072 108.747 21.06 108.747 24.196C108.747 26.856 110.091 29.068 112.751 29.068C114.263 29.068 115.635 28.116 116.167 26.548C116.307 26.128 116.363 25.652 116.363 25.232ZM125.176 31H122.712V17.448H125.176V31ZM123.944 12.1C124.868 12.1 125.456 12.772 125.456 13.64C125.484 14.48 124.868 15.152 123.888 15.152C123.02 15.152 122.404 14.48 122.404 13.64C122.404 12.772 123.048 12.1 123.944 12.1ZM129.274 31V21.116C129.274 19.716 129.246 18.568 129.162 17.448H131.346L131.486 19.688H131.542C132.214 18.4 133.782 17.14 136.022 17.14C137.898 17.14 140.81 18.26 140.81 22.908V31H138.346V23.188C138.346 21.004 137.534 19.184 135.21 19.184C133.586 19.184 132.326 20.332 131.906 21.704C131.794 22.012 131.738 22.432 131.738 22.852V31H129.274Z" fill="white"/>
<path d="M0 10C0 4.47715 4.47715 0 10 0H50V49H10C4.47715 49 0 44.5228 0 39V10Z" fill="#999999"/>
<path fill-rule="evenodd" clip-rule="evenodd" d="M12 23.4471V26.2135C12.5634 27.344 12.2275 30.1177 15.738 33.7401C19.0173 37.1206 22.3075 37.0086 23.2465 37.4781H26.0202C27.3962 36.8966 29.9605 37.3481 33.6732 33.7979C37.1403 30.4824 36.9778 27.2501 37.4834 26.2208V23.6746C37.1259 22.7139 37.3534 21.504 36.2266 19.2396C35.4645 17.7046 34.8722 16.9317 33.8682 15.8699C33.0014 14.9598 31.9071 14.0786 30.5817 13.4141C27.6057 11.9261 24.0663 11.5432 20.8845 12.5978C20.0864 12.8615 19.6024 13.0782 18.909 13.4213C15.8825 14.9237 13.4771 17.8491 12.4876 21.1537C12.2962 21.7966 12.2095 22.9378 12 23.4471ZM15.9511 31.5262L16.2761 31.0459C18.3167 27.5896 20.852 27.1598 24.7417 27.167C28.6567 27.1742 29.5126 27.2284 32.131 29.5759C32.8281 30.2007 33.2109 31.1975 33.5323 31.5154C39.0436 24.9242 34.4063 13.5982 24.7417 13.5982C15.0374 13.5946 10.4542 24.9242 15.9511 31.5262Z" fill="white"/>
<path fill-rule="evenodd" clip-rule="evenodd" d="M23.5282 16.9607C17.2188 18.7448 19.9419 27.7196 25.9588 26.2136C28.1583 25.6646 30.0977 23.2665 29.4187 20.4495C28.8698 18.1597 26.4211 16.1408 23.5282 16.9607Z" fill="white"/>
</svg>
